<?xml version="1.0" standalone="no"?>
<!DOCTYPE svg PUBLIC "-//W3C//DTD SVG 20010904//EN"
 "http://www.w3.org/TR/2001/REC-SVG-20010904/DTD/svg10.dtd">
<svg version="1.0" xmlns="http://www.w3.org/2000/svg"
 width="512.000000pt" height="512.000000pt" viewBox="0 0 512.000000 512.000000"
 preserveAspectRatio="xMidYMid meet">

<g transform="translate(0.000000,512.000000) scale(0.100000,-0.100000)"
fill="#000000" stroke="none">
<path d="M2350 4844 c-14 -2 -65 -9 -115 -15 -116 -14 -364 -77 -485 -124
-772 -294 -1316 -962 -1455 -1785 -22 -130 -31 -439 -16 -581 50 -481 262
-965 570 -1301 l52 -57 -178 -134 c-151 -114 -182 -141 -206 -185 -74 -137
-23 -298 117 -367 l53 -26 1049 4 c1152 3 1104 1 1364 67 168 42 276 82 445
165 571 277 989 754 1191 1360 76 229 114 459 114 698 1 1044 -710 1958 -1724
2218 -187 48 -283 60 -521 64 -126 2 -241 2 -255 -1z m505 -329 c786 -119
1424 -700 1620 -1474 46 -183 58 -306 52 -526 -4 -161 -10 -224 -31 -320 -159
-754 -716 -1345 -1452 -1541 -222 -59 -181 -57 -1079 -61 -456 -2 -879 -3
-939 -1 l-109 3 176 132 c105 79 183 145 192 162 18 35 20 113 4 144 -7 12
-64 76 -129 142 -312 321 -492 684 -556 1125 -20 139 -15 467 9 595 133 704
582 1252 1236 1509 122 48 330 101 451 115 52 6 111 13 130 15 66 8 325 -4
425 -19z"/>
</g>
</svg>
