<?xml version="1.0" encoding="UTF-8"?>
<svg version="1.1" xmlns="http://www.w3.org/2000/svg" width="512" height="512">
<path d="M0 0 C0.79592261 -0.00297112 1.59184522 -0.00594224 2.41188669 -0.0090034 C5.05833413 -0.01762122 7.70473597 -0.01919276 10.35119629 -0.02069092 C12.25742691 -0.02532409 14.16365661 -0.03034941 16.06988525 -0.03573608 C21.23561 -0.04881614 26.40132177 -0.05529673 31.56706047 -0.05974674 C34.80083768 -0.06268526 38.0346114 -0.06679158 41.26838684 -0.07125092 C51.40463287 -0.08491579 61.54087086 -0.09458675 71.67712545 -0.09845281 C83.34304083 -0.10292778 95.00883871 -0.12045391 106.67471838 -0.1494534 C115.7145478 -0.17113786 124.75434434 -0.18116073 133.79419947 -0.18249393 C139.18256312 -0.18353734 144.57081616 -0.18934554 149.95915222 -0.20731354 C155.0350441 -0.22391103 160.11074363 -0.22589361 165.18665314 -0.21717453 C167.03761056 -0.2164103 168.88857884 -0.2206646 170.73950958 -0.23063278 C194.80454205 -0.35251248 214.4093464 4.29260223 232.61096191 20.98809814 C248.6584282 37.48465397 251.849235 58.20423447 251.90783691 80.19903564 C251.91066429 80.92069475 251.91349167 81.64235386 251.91640472 82.38588142 C251.93133605 86.21154257 251.94060146 90.03716665 251.94494629 93.862854 C251.9503961 97.76219412 251.97436701 101.66117892 252.00291824 105.56040859 C252.02179394 108.60383504 252.02676342 111.64718051 252.02828217 114.69066048 C252.03125774 116.12520331 252.039107 117.55974657 252.05246735 118.99423027 C252.22158343 138.56165363 249.08959202 156.4061917 236.70471191 172.14044189 C236.1207666 172.90098877 235.53682129 173.66153564 234.93518066 174.44512939 C222.96536353 189.01050688 206.08075912 196.16995805 187.70471191 198.14044189 C181.30737439 198.49544593 174.8954047 198.42483996 168.49060059 198.4151001 C166.58363141 198.41945586 164.67666398 198.42464186 162.7696991 198.43058777 C157.62491062 198.4438965 152.48019598 198.44456552 147.33539367 198.44202447 C143.02419907 198.44094916 138.71301908 198.44585241 134.40182763 198.45062989 C124.22209745 198.46169711 114.04240418 198.46217828 103.8626709 198.45611572 C93.39771559 198.45007866 82.93289481 198.46238663 72.46796244 198.48368579 C63.44925721 198.50135941 54.43059458 198.50729407 45.41187268 198.50404805 C40.04035961 198.50224413 34.66894252 198.50478168 29.2974453 198.51876259 C24.24199445 198.53143037 19.1867518 198.52931305 14.13130379 198.5163517 C12.28840944 198.51400568 10.44550002 198.51664866 8.60262299 198.52497482 C-15.43338586 198.62564094 -35.02378005 193.96639821 -53.20153809 177.29278564 C-69.24900437 160.79622982 -72.43981117 140.07664932 -72.49841309 118.08184814 C-72.50124046 117.36018904 -72.50406784 116.63852993 -72.5069809 115.89500237 C-72.52191222 112.06934122 -72.53117763 108.24371714 -72.53552246 104.41802979 C-72.54097227 100.51868967 -72.56494318 96.61970487 -72.59349442 92.7204752 C-72.61237011 89.67704875 -72.61733959 86.63370328 -72.61885834 83.59022331 C-72.62183391 82.15568048 -72.62968317 80.72113722 -72.64304352 79.28665352 C-72.84472363 55.95143806 -67.51695903 36.7531513 -51.44763184 19.23419189 C-37.5079196 5.67396366 -19.05431604 -0.02266614 0 0 Z M-44.10778809 40.32794189 C-53.16917648 52.53832342 -53.45532088 66.97825042 -53.46325684 81.49981689 C-53.46647806 82.89453158 -53.46984275 84.28924595 -53.4733429 85.68395996 C-53.47930512 88.59882387 -53.48118585 91.51365826 -53.48059082 94.42852783 C-53.48048947 98.13098847 -53.49412652 101.83325617 -53.51136303 105.53567123 C-53.52258033 108.41504759 -53.52450706 111.29437877 -53.52398109 114.17377472 C-53.52570734 116.19195484 -53.53648568 118.21012085 -53.54753113 120.22827148 C-53.50828917 136.23051369 -50.97986289 149.77159914 -40.29528809 162.14044189 C-39.77192871 162.74630127 -39.24856934 163.35216064 -38.70935059 163.97637939 C-28.91736298 174.50391536 -15.66532259 179.04870314 -1.53207397 179.60006046 C2.69996317 179.68595327 6.92908766 179.67848012 11.16174316 179.65802002 C13.07063325 179.66345325 14.97951913 179.67058259 16.88839722 179.67926025 C22.02895448 179.69735378 27.16918734 179.69048431 32.3097496 179.67774391 C37.71590737 179.66754327 43.12203927 179.67702905 48.52819824 179.68328857 C57.60303683 179.69054455 66.67774477 179.68103128 75.75256348 179.66192627 C86.21081801 179.64016156 96.6687605 179.64721438 107.12700748 179.66923189 C116.14235872 179.68744451 125.1576166 179.68991566 134.17298031 179.67947721 C139.54165186 179.67327441 144.91017724 179.67231745 150.27883911 179.68562317 C155.3286445 179.69726677 160.37805165 179.68900211 165.42781448 179.66604614 C167.26951057 179.66080416 169.11124079 179.66219435 170.95292282 179.6710968 C189.47557627 179.75230651 204.64922233 176.99189577 218.57971191 163.70294189 C231.32771155 150.20505993 232.86292649 134.62969148 232.87268066 116.78106689 C232.87590188 115.38635221 232.87926658 113.99163784 232.88276672 112.59692383 C232.88872895 109.68205992 232.89060968 106.76722553 232.89001465 103.85235596 C232.8899133 100.14989532 232.90355035 96.44762762 232.92078686 92.74521255 C232.93200416 89.8658362 232.93393088 86.98650502 232.93340492 84.10710907 C232.93513117 82.08892895 232.94590951 80.07076293 232.95695496 78.0526123 C232.91721601 61.84770855 230.61634291 48.53161608 219.70471191 36.14044189 C218.88486816 35.19684814 218.88486816 35.19684814 218.04846191 34.23419189 C209.89863089 25.46927929 199.4243165 20.7930355 187.70471191 19.14044189 C185.00195776 19.0461141 182.32525691 18.99682285 179.62301636 19 C178.82598034 18.99702888 178.02894431 18.99405776 177.20775568 18.9909966 C174.54576029 18.98234787 171.88381007 18.98080459 169.22180176 18.97930908 C167.30937607 18.97467815 165.39695129 18.96965312 163.48452759 18.96426392 C158.29416039 18.95116327 153.10380611 18.94469936 147.91342497 18.94025326 C144.66729402 18.93731838 141.42116657 18.93321276 138.17503738 18.92874908 C128.00889235 18.91507947 117.84275535 18.90541054 107.67660177 18.90154719 C95.95968608 18.89706952 84.24288723 18.87953282 72.52600706 18.8505466 C63.45740598 18.82889438 54.38883769 18.818841 45.32021105 18.81750607 C39.90958893 18.81646046 34.49907671 18.81060473 29.0884819 18.79268646 C23.99457203 18.77614484 18.90085397 18.77407976 13.80692673 18.78282547 C11.94461552 18.78359263 10.08229375 18.77929588 8.22000885 18.76936722 C-13.61102924 18.65986798 -29.41871527 23.25427934 -44.10778809 40.32794189 Z " fill="#000000" transform="translate(166.2952880859375,156.85955810546875)"/>
<path d="M0 0 C4.04517867 1.48747622 7.84688443 3.36393433 11.6875 5.3125 C13.21600586 6.06176758 13.21600586 6.06176758 14.77539062 6.82617188 C27.27444128 12.99803796 27.27444128 12.99803796 29.3125 15.8125 C30.46052883 19.46531899 30.49053812 22.64158674 29.1875 26.25 C28 28 28 28 25 30 C19.97750178 30.86733905 15.7753805 30.13439715 11.1953125 27.9765625 C10.40398926 27.60869629 9.61266602 27.24083008 8.79736328 26.86181641 C8.2042334 26.57741699 7.61110352 26.29301758 7 26 C12.53322442 74.04189371 31.10759308 116.53245959 64.66601562 151.60302734 C65.80358673 152.79431246 66.92678224 153.99929764 68.046875 155.20703125 C101.79490791 190.61362133 154.01485964 210.92213433 202.25 212.375 C203.55710938 212.40207031 203.55710938 212.40207031 204.890625 212.4296875 C210.96587554 212.65195276 214.58235764 213.58235764 219 218 C219.37109375 219.98828125 219.37109375 219.98828125 219.4375 222.3125 C219.47746094 223.07175781 219.51742187 223.83101562 219.55859375 224.61328125 C218.67331001 228.39585721 217.12831347 229.7338513 214 232 C210.69172333 232.69637822 207.49290896 232.6128248 204.125 232.5 C203.1553833 232.4808252 202.1857666 232.46165039 201.18676758 232.44189453 C167.25788008 231.43186248 133.76340418 222.29069271 104 206 C103.4004248 205.67676758 102.80084961 205.35353516 102.18310547 205.02050781 C90.21070119 198.53585877 79.21373323 190.91236518 68.625 182.375 C67.97096191 181.8488208 67.31692383 181.3226416 66.64306641 180.78051758 C62.15379241 177.10388796 58.04141788 173.16020547 54 169 C53.21625 168.21625 52.4325 167.4325 51.625 166.625 C50.75875 165.75875 49.8925 164.8925 49 164 C48.38898438 163.43539062 47.77796875 162.87078125 47.1484375 162.2890625 C35.51333058 151.2462883 26.25235905 137.69288796 18 124 C17.63986816 123.41524902 17.27973633 122.83049805 16.90869141 122.22802734 C-0.24867139 94.19702519 -8.09756287 63.14622635 -13 31 C-13.92683594 31.65097656 -14.85367188 32.30195313 -15.80859375 32.97265625 C-19.37733609 35.2397031 -20.86831726 35.615357 -25 35 C-27.92775941 33.93536021 -29.47755803 33.07575552 -30.859375 30.23046875 C-32.03292478 26.48798987 -32.30786636 24.77574221 -30.8125 21.0078125 C-27.79565413 16.00140879 -23.41973281 12.74636632 -19 9 C-17.60394531 7.72382813 -17.60394531 7.72382813 -16.1796875 6.421875 C-15.25414063 5.60203125 -14.32859375 4.7821875 -13.375 3.9375 C-12.53710938 3.18339844 -11.69921875 2.42929688 -10.8359375 1.65234375 C-7.07279836 -0.54022905 -4.18154438 -0.84377592 0 0 Z " fill="#000000" transform="translate(47,246)"/>
<path d="M0 0 C0.9696167 0.0191748 1.9392334 0.03834961 2.93823242 0.05810547 C35.14750818 1.01694625 67.74508437 9.07829251 96.14013672 24.43164062 C98.22894963 25.55595124 100.33422709 26.64492353 102.44140625 27.734375 C118.29544018 36.07623312 132.58563985 46.52538713 145.4609375 58.9765625 C148.05630083 61.50704583 148.05630083 61.50704583 150.7734375 63.609375 C152.91711773 65.33286542 154.60866209 67.02858885 156.375 69.125 C158.2507691 71.33084006 160.1287391 73.50395905 162.1171875 75.609375 C194.90918695 110.44336709 209.8983535 155.23491211 217.125 201.5 C218.02992188 200.84128906 218.93484375 200.18257812 219.8671875 199.50390625 C223.68141327 197.15774579 225.09286929 197.0159917 229.2890625 197.8359375 C232.49674733 198.99616393 233.59481195 200.50338173 235.125 203.5 C235.72208351 206.31482227 235.77551548 208.69069422 235.125 211.5 C233.125 214 233.125 214 230.125 216.5 C228.88860877 217.76380567 227.66009691 219.03534501 226.4375 220.3125 C223.41299222 223.30283255 220.33753229 226.21185754 217.125 229 C215.9803125 230.00546875 215.9803125 230.00546875 214.8125 231.03125 C211.11969961 233.04940835 208.17316903 233.28561709 204.125 232.5 C200.07878157 231.01548952 196.27801707 229.1360157 192.4375 227.1875 C191.41849609 226.68798828 190.39949219 226.18847656 189.34960938 225.67382812 C176.85055872 219.50196204 176.85055872 219.50196204 174.8125 216.6875 C173.66447117 213.03468101 173.63446188 209.85841326 174.9375 206.25 C176.125 204.5 176.125 204.5 179.125 202.5 C184.14749822 201.63266095 188.3496195 202.36560285 192.9296875 204.5234375 C194.11667236 205.07523682 194.11667236 205.07523682 195.32763672 205.63818359 C195.9207666 205.92258301 196.51389648 206.20698242 197.125 206.5 C192.51878884 170.16716566 182.03870882 135.41327631 160.125 105.5 C159.36832031 104.45972656 158.61164063 103.41945313 157.83203125 102.34765625 C152.19203285 94.74177392 146.00206314 87.73488308 139.45898438 80.89697266 C138.32141327 79.70568754 137.19821776 78.50070236 136.078125 77.29296875 C126.49969199 67.24380079 114.67680356 59.0966406 103.125 51.5 C102.57859863 51.13696777 102.03219727 50.77393555 101.46923828 50.39990234 C71.53277361 30.72290454 34.84167147 20.80774172 -0.765625 20.0703125 C-6.84087554 19.84804724 -10.45735764 18.91764236 -14.875 14.5 C-15.24609375 12.51171875 -15.24609375 12.51171875 -15.3125 10.1875 C-15.35246094 9.42824219 -15.39242187 8.66898438 -15.43359375 7.88671875 C-13.52354956 -0.27437916 -6.92342377 -0.23193439 0 0 Z " fill="#000000" transform="translate(260.875,33.5)"/>
</svg>
