<?xml version="1.0" encoding="UTF-8"?>
<svg version="1.1" xmlns="http://www.w3.org/2000/svg" width="512" height="512">
<path d="M0 0 C1.42618882 -0.00135327 2.85237718 -0.00329924 4.27856445 -0.00579834 C7.24337224 -0.00871859 10.20805814 -0.0045534 13.17285156 0.00488281 C16.93101207 0.01627549 20.68888667 0.00969915 24.44703674 -0.00226212 C27.38482735 -0.00956548 30.32255264 -0.00715441 33.26034546 -0.00200653 C34.64431799 -0.00069332 36.0282969 -0.0022337 37.41226196 -0.00696564 C60.76823693 -0.06934134 80.01306006 4.59826987 97.40625 20.890625 C110.99166982 35.03434975 116.85086802 53.28804574 116.82794189 72.56091309 C116.83091302 73.35683569 116.83388414 74.1527583 116.8369453 74.97279978 C116.84556312 77.61924722 116.84713465 80.26564906 116.84863281 82.91210938 C116.85326598 84.81834 116.85829131 86.7245697 116.86367798 88.63079834 C116.87675803 93.79652308 116.88323862 98.96223485 116.88768864 104.12797356 C116.89062716 107.36175076 116.89473347 110.59552448 116.89919281 113.82929993 C116.91285769 123.96554595 116.92252864 134.10178394 116.9263947 144.23803854 C116.93086967 155.90395392 116.9483958 167.56975179 116.9773953 179.23563147 C116.99907975 188.27546089 117.00910262 197.31525742 117.01043582 206.35511255 C117.01147923 211.7434762 117.01728743 217.13172925 117.03525543 222.52006531 C117.05185293 227.59595719 117.05383551 232.67165671 117.04511642 237.74756622 C117.04435219 239.59852365 117.0486065 241.44949193 117.05857468 243.30042267 C117.1614594 263.61491492 114.59345148 281.78399865 101.6875 298.265625 C101.15382813 298.96429688 100.62015625 299.66296875 100.0703125 300.3828125 C88.54028272 314.5608874 71.34822166 322.12195542 53.49769592 324.05097961 C47.63007043 324.49915432 41.74485333 324.43045663 35.86328125 324.43359375 C34.42994658 324.43681626 32.99661222 324.44018104 31.5632782 324.44367981 C28.5686263 324.44963859 25.57400311 324.45152315 22.5793457 324.45092773 C18.78182753 324.45082647 14.98449782 324.4644564 11.18702412 324.48169994 C8.22779023 324.49293669 5.26860017 324.49484338 2.30934715 324.49431801 C0.91141297 324.49548149 -0.48652298 324.49980889 -1.88443565 324.50765038 C-25.30283346 324.6266947 -44.59021766 319.97779453 -62.03125 303.640625 C-75.25528124 289.87314042 -81.47502631 271.86318855 -81.45294189 253.00793457 C-81.45739858 251.80202329 -81.45739858 251.80202329 -81.4619453 250.57175016 C-81.47057967 247.89222376 -81.47213608 245.21274231 -81.47363281 242.53320312 C-81.47826482 240.60579331 -81.48328999 238.67838441 -81.48867798 236.75097656 C-81.50176958 231.52327825 -81.50824094 226.29559277 -81.51268864 221.06788063 C-81.5156254 217.79642695 -81.5197314 214.52497672 -81.52419281 211.25352478 C-81.53786099 201.00248116 -81.54753022 190.75144549 -81.5513947 180.50039339 C-81.5558699 168.69635733 -81.57339572 156.89243738 -81.6023953 145.0884366 C-81.6240707 135.94588376 -81.63410215 126.80336344 -81.63543582 117.6607852 C-81.63647992 112.20928189 -81.64230285 106.75788783 -81.66025543 101.30641174 C-81.67683703 96.17144101 -81.67884304 91.03666047 -81.67011642 85.90167236 C-81.66935134 84.02772001 -81.67361803 82.15375699 -81.68357468 80.27983093 C-81.80255266 56.47098838 -76.85948174 36.60514881 -60.08984375 18.921875 C-43.19910547 2.98143234 -22.35918954 -0.07644869 0 0 Z M-45.3125 32.265625 C-45.91835937 32.78898437 -46.52421875 33.31234375 -47.1484375 33.8515625 C-57.98388028 43.92994378 -62.21388615 57.59665219 -62.7674216 72.09709871 C-62.8493731 76.29368358 -62.83850443 80.48721635 -62.81420898 84.68432617 C-62.81800207 86.57690328 -62.82351019 88.46947759 -62.83058167 90.36204529 C-62.84442174 95.45283794 -62.83344904 100.54328829 -62.81687045 105.63406157 C-62.80291219 110.98775794 -62.80949197 116.3414366 -62.81300354 121.69514465 C-62.8156965 130.67824757 -62.8023066 139.66121617 -62.77905273 148.64428711 C-62.75242452 159.00202036 -62.75070711 169.35952956 -62.7624411 179.71728534 C-62.77325048 189.72219508 -62.7670086 199.72702448 -62.75288582 209.73192787 C-62.74715585 213.97202791 -62.74718496 218.21206858 -62.75195122 222.45216942 C-62.75675244 227.45022234 -62.74649008 232.44803239 -62.72499657 237.4460392 C-62.71947204 239.27083645 -62.71892309 241.09565724 -62.72394943 242.92045593 C-62.76761273 261.05760656 -60.58433549 276.37330148 -47.62890625 290.01171875 C-33.83968591 303.42888593 -18.19078698 305.58924699 0.4375 305.53125 C1.82649808 305.53260235 3.2154957 305.53454757 4.60449219 305.53704834 C7.4954892 305.53997288 10.38636142 305.5357891 13.27734375 305.52636719 C16.94832296 305.51497421 20.61900951 305.52154818 24.28997803 305.53351212 C27.15220266 305.54080358 30.01436004 305.53840972 32.87658691 305.53325653 C34.87703648 305.53130887 36.87748887 305.53728993 38.87792969 305.54351807 C55.04056547 305.46145693 68.32889919 303.14857198 80.6875 292.265625 C81.63109375 291.44578125 81.63109375 291.44578125 82.59375 290.609375 C93.39249488 280.56843678 97.58302806 266.88899741 98.14711857 252.44824219 C98.23265931 248.26289015 98.22559264 244.08050271 98.20507812 239.89453125 C98.21051285 238.00682031 98.217643 236.11911362 98.22631836 234.23141479 C98.24439423 229.15282965 98.23754989 224.07457326 98.22480202 218.99598312 C98.21459205 213.6516921 98.2240897 208.30742704 98.23034668 202.96313477 C98.23759998 193.99262499 98.22809647 185.02224745 98.20898438 176.05175781 C98.18722018 165.71790118 98.19427319 155.38436035 98.21629 145.05051136 C98.2345103 136.13788326 98.23697005 127.22534958 98.22653532 118.31270885 C98.2203367 113.00717692 98.21936378 107.70179286 98.23268127 102.39627075 C98.24433621 97.40554329 98.23604009 92.41521836 98.21310425 87.42453384 C98.20786821 85.60583282 98.20924193 83.78709722 98.21815491 81.96841049 C98.30139335 63.24012158 95.6703187 47.48195963 82.25 33.390625 C68.75211803 20.64262536 53.17674959 19.10741042 35.328125 19.09765625 C33.93341031 19.09443503 32.53869595 19.09107034 31.14398193 19.08757019 C28.22911802 19.08160797 25.31428363 19.07972724 22.39941406 19.08032227 C18.69695343 19.08042361 14.99468573 19.06678657 11.29227066 19.04955006 C8.4128943 19.03833275 5.53356313 19.03640603 2.65416718 19.03693199 C0.63598706 19.03520574 -1.38217896 19.0244274 -3.40032959 19.01338196 C-19.40257179 19.05262392 -32.94365725 21.5810502 -45.3125 32.265625 Z " fill="#000000" transform="translate(238.3125,93.734375)"/>
<path d="M0 0 C4.42901799 1.77160719 7.01966959 5.10182139 10.0234375 8.66796875 C12.98397481 12.16093471 16.0921467 15.51784198 19.1796875 18.8984375 C21.9176911 22.05948028 22.4217259 24.35308903 22.36572266 28.55712891 C21.60233484 33.65623338 18.99781232 38.13388315 16.6875 42.6875 C15.93823242 44.21600586 15.93823242 44.21600586 15.17382812 45.77539062 C9.00196204 58.27444128 9.00196204 58.27444128 6.1875 60.3125 C2.53468101 61.46052883 -0.64158674 61.49053812 -4.25 60.1875 C-6 59 -6 59 -8 56 C-8.86733905 50.97750178 -8.13439715 46.7753805 -5.9765625 42.1953125 C-5.42476318 41.00832764 -5.42476318 41.00832764 -4.86181641 39.79736328 C-4.57741699 39.2042334 -4.29301758 38.61110352 -4 38 C-52.04267636 43.86554557 -94.43778043 62.01699622 -129.60302734 95.66601562 C-130.79431246 96.80358673 -131.99929764 97.92678224 -133.20703125 99.046875 C-143.25619921 108.62530801 -151.4033594 120.44819644 -159 132 C-159.36303223 132.54640137 -159.72606445 133.09280273 -160.10009766 133.65576172 C-179.51467825 163.19298645 -188.83731454 198.49325759 -190.28027344 233.51904297 C-190.36196777 235.26531982 -190.36196777 235.26531982 -190.4453125 237.046875 C-190.48156738 238.07651367 -190.51782227 239.10615234 -190.55517578 240.16699219 C-191.2151161 244.37003692 -193.02669871 247.02669871 -196 250 C-197.98828125 250.37109375 -197.98828125 250.37109375 -200.3125 250.4375 C-201.07175781 250.47746094 -201.83101562 250.51742187 -202.61328125 250.55859375 C-206.40536016 249.67108592 -207.73131319 248.14217075 -210 245 C-210.72908338 241.61145013 -210.6599864 238.32859469 -210.5625 234.875 C-210.54662842 233.87235107 -210.53075684 232.86970215 -210.5144043 231.83666992 C-209.58253844 199.84588717 -201.30721921 167.16817676 -186.06835938 138.98486328 C-184.94404876 136.89605037 -183.85507647 134.79077291 -182.765625 132.68359375 C-174.42376688 116.82955982 -163.97461287 102.53936015 -151.5234375 89.6640625 C-148.99295417 87.06869917 -148.99295417 87.06869917 -146.890625 84.3515625 C-145.16713458 82.20788227 -143.47141115 80.51633791 -141.375 78.75 C-139.16915994 76.8742309 -136.99604095 74.9962609 -134.890625 73.0078125 C-100.05663291 40.21581305 -55.26508789 25.2266465 -9 18 C-9.71542969 17.09894531 -9.71542969 17.09894531 -10.4453125 16.1796875 C-12.4592155 13.35617525 -12.86154417 11.4613957 -13 8 C-10.32762115 1.051815 -7.36952814 -0.63530415 0 0 Z " fill="#000000" transform="translate(244,16)"/>
<path d="M0 0 C0.75925781 -0.03996094 1.51851562 -0.07992187 2.30078125 -0.12109375 C6.08335721 0.76418999 7.4213513 2.30918653 9.6875 5.4375 C10.38387822 8.74577667 10.3003248 11.94459104 10.1875 15.3125 C10.1683252 16.2821167 10.14915039 17.2517334 10.12939453 18.25073242 C9.14317445 51.37973069 0.53184891 84.3227671 -15.3125 113.4375 C-15.66957031 114.10475098 -16.02664063 114.77200195 -16.39453125 115.45947266 C-25.18658923 131.84361251 -35.72847097 146.45191962 -48.2890625 160.19140625 C-49.88661928 161.96475596 -51.39633492 163.75433982 -52.875 165.625 C-55.43152764 168.57483958 -58.14259484 171.02255274 -61.11328125 173.54296875 C-62.57732271 174.80417676 -64.01303632 176.09904543 -65.41796875 177.42578125 C-100.15080658 210.12606058 -145.08239869 225.38721165 -191.3125 232.4375 C-190.83554687 233.03820312 -190.35859375 233.63890625 -189.8671875 234.2578125 C-187.8532845 237.08132475 -187.45095583 238.9761043 -187.3125 242.4375 C-188.84123871 246.41222063 -189.74030497 248.05603665 -193.3125 250.4375 C-198.35968015 250.9048315 -201.33552841 250.61907727 -205.3125 247.4375 C-207.05677943 245.60072091 -208.70404185 243.70695802 -210.3359375 241.76953125 C-213.29647481 238.27656529 -216.4046467 234.91965802 -219.4921875 231.5390625 C-222.2301911 228.37801972 -222.7342259 226.08441097 -222.67822266 221.88037109 C-221.91483484 216.78126662 -219.31031232 212.30361685 -217 207.75 C-216.50048828 206.73099609 -216.00097656 205.71199219 -215.48632812 204.66210938 C-209.31446204 192.16305872 -209.31446204 192.16305872 -206.5 190.125 C-202.84718101 188.97697117 -199.67091326 188.94696188 -196.0625 190.25 C-194.3125 191.4375 -194.3125 191.4375 -192.3125 194.4375 C-191.44516095 199.45999822 -192.17810285 203.6621195 -194.3359375 208.2421875 C-194.70380371 209.03351074 -195.07166992 209.82483398 -195.45068359 210.64013672 C-195.73508301 211.2332666 -196.01948242 211.82639648 -196.3125 212.4375 C-148.27060629 206.90427558 -105.78004041 188.32990692 -70.70947266 154.77148438 C-69.51818754 153.63391327 -68.31320236 152.51071776 -67.10546875 151.390625 C-32.99115556 118.87433463 -12.01876476 68.08455967 -10.078125 21.39453125 C-10.04227295 20.53923828 -10.0064209 19.68394531 -9.96948242 18.80273438 C-9.90800592 17.14175681 -9.86054658 15.48018137 -9.8293457 13.81835938 C-9.60738054 7.05452761 -7.82296483 0.22351328 0 0 Z " fill="#000000" transform="translate(468.3125,245.5625)"/>
</svg>
