<?xml version="1.0" standalone="no"?>
<!DOCTYPE svg PUBLIC "-//W3C//DTD SVG 20010904//EN"
 "http://www.w3.org/TR/2001/REC-SVG-20010904/DTD/svg10.dtd">
<svg version="1.0" xmlns="http://www.w3.org/2000/svg"
 width="512.000000pt" height="512.000000pt" viewBox="0 0 512.000000 512.000000"
 preserveAspectRatio="xMidYMid meet">

<g transform="translate(0.000000,512.000000) scale(0.100000,-0.100000)"
fill="#000000" stroke="none">
<path d="M2475 4716 c-40 -18 -80 -62 -99 -108 -13 -31 -16 -92 -16 -375 0
-308 2 -342 19 -378 73 -157 289 -157 362 0 17 36 19 70 19 380 0 334 0 342
-22 385 -13 24 -40 57 -61 74 -33 26 -48 31 -105 33 -42 2 -78 -2 -97 -11z"/>
<path d="M145 3676 c-53 -20 -111 -83 -125 -137 -13 -49 -9 -92 15 -142 19
-41 495 -473 542 -493 48 -20 127 -17 173 6 97 49 131 163 82 268 -16 36 -479
460 -531 487 -45 23 -110 27 -156 11z"/>
<path d="M4847 3676 c-47 -17 -30 -3 -309 -254 -138 -125 -242 -226 -251 -245
-48 -104 -13 -218 83 -267 46 -23 126 -26 173 -6 49 20 522 450 542 492 40 85
27 165 -39 230 -59 60 -125 76 -199 50z"/>
<path d="M2360 3124 c-157 -18 -285 -41 -395 -69 -688 -176 -1348 -662 -1771
-1305 -96 -146 -169 -277 -185 -330 -39 -128 71 -259 207 -248 87 7 123 40
208 188 170 297 372 543 620 757 467 402 989 613 1518 613 318 0 622 -75 938
-231 270 -134 480 -288 721 -528 208 -209 347 -388 486 -631 73 -126 113 -161
197 -168 136 -11 246 120 207 248 -28 94 -192 352 -344 543 -504 630 -1156
1032 -1852 1143 -95 15 -476 27 -555 18z"/>
<path d="M2390 2339 c-91 -16 -245 -73 -332 -125 -171 -103 -331 -288 -405
-470 -57 -139 -76 -254 -70 -414 8 -199 53 -342 162 -505 130 -197 328 -340
561 -407 69 -20 101 -23 254 -23 153 0 185 3 254 23 238 69 432 211 567 415
205 313 213 708 20 1042 -63 109 -226 272 -338 339 -92 54 -243 110 -343 125
-77 13 -253 12 -330 0z m292 -400 c166 -34 324 -158 397 -312 46 -96 61 -161
61 -260 0 -158 -59 -297 -175 -412 -112 -112 -242 -165 -405 -165 -162 0 -293
54 -405 165 -144 143 -204 342 -164 537 43 208 223 393 431 444 67 16 191 17
260 3z"/>
</g>
</svg>
